[NULL @ 0x55a7b51b50] Unable to find a suitable output format for '03.wmv1'
Output #0, mpeg, to '03.wmv1':
    Stream #0:0: Audio: mp2, 44100 Hz, stereo, s16, 64 kb/s
音频编码
Could not deduce output format from file extension: using MPEG.
pts:-982 pts_time:-0.0109111 dts:-982 dts_time:-0.0109111 duration:2351 duration_time:0.0261222 stream_index:0
pts:1369 pts_time:0.0152111 dts:1369 dts_time:0.0152111 duration:2351 duration_time:0.0261222 stream_index:0
pts:3720 pts_time:0.0413333 dts:3720 dts_time:0.0413333 duration:2351 duration_time:0.0261222 stream_index:0
pts:6071 pts_time:0.0674556 dts:6071 dts_time:0.0674556 duration:2351 duration_time:0.0261222 stream_index:0
pts:8422 pts_time:0.0935778 dts:8422 dts_time:0.0935778 duration:2351 duration_time:0.0261222 stream_index:0
pts:10773 pts_time:0.1197 dts:10773 dts_time:0.1197 duration:2351 duration_time:0.0261222 stream_index:0
pts:13124 pts_time:0.145822 dts:13124 dts_time:0.145822 duration:2351 duration_time:0.0261222 stream_index:0
pts:15476 pts_time:0.171956 dts:15476 dts_time:0.171956 duration:2351 duration_time:0.0261222 stream_index:0
pts:17827 pts_time:0.198078 dts:17827 dts_time:0.198078 duration:2351 duration_time:0.0261222 stream_index:0
pts:20178 pts_time:0.2242 dts:20178 dts_time:0.2242 duration:2351 duration_time:0.0261222 stream_index:0
pts:22529 pts_time:0.250322 dts:22529 dts_time:0.250322 duration:2351 duration_time:0.0261222 stream_index:0
pts:24880 pts_time:0.276444 dts:24880 dts_time:0.276444 duration:2351 duration_time:0.0261222 stream_index:0
pts:27231 pts_time:0.302567 dts:27231 dts_time:0.302567 duration:2351 duration_time:0.0261222 stream_index:0
pts:29582 pts_time:0.328689 dts:29582 dts_time:0.328689 duration:2351 duration_time:0.0261222 stream_index:0
pts:31933 pts_time:0.354811 dts:31933 dts_time:0.354811 duration:2351 duration_time:0.0261222 stream_index:0
pts:34284 pts_time:0.380933 dts:34284 dts_time:0.380933 duration:2351 duration_time:0.0261222 stream_index:0
pts:36635 pts_time:0.407056 dts:36635 dts_time:0.407056 duration:2351 duration_time:0.0261222 stream_index:0
pts:38986 pts_time:0.433178 dts:38986 dts_time:0.433178 duration:2351 duration_time:0.0261222 stream_index:0
pts:41337 pts_time:0.4593 dts:41337 dts_time:0.4593 duration:2351 duration_time:0.0261222 stream_index:0
pts:43688 pts_time:0.485422 dts:43688 dts_time:0.485422 duration:2351 duration_time:0.0261222 stream_index:0
pts:46039 pts_time:0.511544 dts:46039 dts_time:0.511544 duration:2351 duration_time:0.0261222 stream_index:0
pts:48390 pts_time:0.537667 dts:48390 dts_time:0.537667 duration:2351 duration_time:0.0261222 stream_index:0
pts:50741 pts_time:0.563789 dts:50741 dts_time:0.563789 duration:2351 duration_time:0.0261222 stream_index:0
pts:53092 pts_time:0.589911 dts:53092 dts_time:0.589911 duration:2351 duration_time:0.0261222 stream_index:0
pts:55443 pts_time:0.616033 dts:55443 dts_time:0.616033 duration:2351 duration_time:0.0261222 stream_index:0
pts:57794 pts_time:0.642156 dts:57794 dts_time:0.642156 duration:2351 duration_time:0.0261222 stream_index:0
pts:60145 pts_time:0.668278 dts:60145 dts_time:0.668278 duration:2351 duration_time:0.0261222 stream_index:0
pts:62496 pts_time:0.6944 dts:62496 dts_time:0.6944 duration:2351 duration_time:0.0261222 stream_index:0
pts:64847 pts_time:0.720522 dts:64847 dts_time:0.720522 duration:2351 duration_time:0.0261222 stream_index:0
pts:67198 pts_time:0.746644 dts:67198 dts_time:0.746644 duration:2351 duration_time:0.0261222 stream_index:0
pts:69549 pts_time:0.772767 dts:69549 dts_time:0.772767 duration:2351 duration_time:0.0261222 stream_index:0
pts:71900 pts_time:0.798889 dts:71900 dts_time:0.798889 duration:2351 duration_time:0.0261222 stream_index:0
pts:74251 pts_time:0.825011 dts:74251 dts_time:0.825011 duration:2351 duration_time:0.0261222 stream_index:0
pts:76602 pts_time:0.851133 dts:76602 dts_time:0.851133 duration:2351 duration_time:0.0261222 stream_index:0
pts:78953 pts_time:0.877256 dts:78953 dts_time:0.877256 duration:2351 duration_time:0.0261222 stream_index:0
pts:81304 pts_time:0.903378 dts:81304 dts_time:0.903378 duration:2351 duration_time:0.0261222 stream_index:0
pts:83655 pts_time:0.9295 dts:83655 dts_time:0.9295 duration:2351 duration_time:0.0261222 stream_index:0
pts:86006 pts_time:0.955622 dts:86006 dts_time:0.955622 duration:2351 duration_time:0.0261222 stream_index:0
pts:88357 pts_time:0.981744 dts:88357 dts_time:0.981744 duration:2351 duration_time:0.0261222 stream_index:0
pts:90708 pts_time:1.00787 dts:90708 dts_time:1.00787 duration:2351 duration_time:0.0261222 stream_index:0
pts:93059 pts_time:1.03399 dts:93059 dts_time:1.03399 duration:2351 duration_time:0.0261222 stream_index:0
pts:95410 pts_time:1.06011 dts:95410 dts_time:1.06011 duration:2351 duration_time:0.0261222 stream_index:0
pts:97761 pts_time:1.08623 dts:97761 dts_time:1.08623 duration:2351 duration_time:0.0261222 stream_index:0
pts:100112 pts_time:1.11236 dts:100112 dts_time:1.11236 duration:2351 duration_time:0.0261222 stream_index:0
pts:102463 pts_time:1.13848 dts:102463 dts_time:1.13848 duration:2351 duration_time:0.0261222 stream_index:0
pts:104814 pts_time:1.1646 dts:104814 dts_time:1.1646 duration:2351 duration_time:0.0261222 stream_index:0
pts:107165 pts_time:1.19072 dts:107165 dts_time:1.19072 duration:2351 duration_time:0.0261222 stream_index:0
pts:109516 pts_time:1.21684 dts:109516 dts_time:1.21684 duration:2351 duration_time:0.0261222 stream_index:0
pts:111867 pts_time:1.24297 dts:111867 dts_time:1.24297 duration:2351 duration_time:0.0261222 stream_index:0
pts:114218 pts_time:1.26909 dts:114218 dts_time:1.26909 duration:2351 duration_time:0.0261222 stream_index:0
pts:116569 pts_time:1.29521 dts:116569 dts_time:1.29521 duration:2351 duration_time:0.0261222 stream_index:0
pts:118920 pts_time:1.32133 dts:118920 dts_time:1.32133 duration:2351 duration_time:0.0261222 stream_index:0
pts:121271 pts_time:1.34746 dts:121271 dts_time:1.34746 duration:2351 duration_time:0.0261222 stream_index:0
pts:123622 pts_time:1.37358 dts:123622 dts_time:1.37358 duration:2351 duration_time:0.0261222 stream_index:0
pts:125973 pts_time:1.3997 dts:125973 dts_time:1.3997 duration:2351 duration_time:0.0261222 stream_index:0
pts:128324 pts_time:1.42582 dts:128324 dts_time:1.42582 duration:2351 duration_time:0.0261222 stream_index:0
pts:130676 pts_time:1.45196 dts:130676 dts_time:1.45196 duration:2351 duration_time:0.0261222 stream_index:0
pts:133027 pts_time:1.47808 dts:133027 dts_time:1.47808 duration:2351 duration_time:0.0261222 stream_index:0
pts:135378 pts_time:1.5042 dts:135378 dts_time:1.5042 duration:2351 duration_time:0.0261222 stream_index:0
pts:137729 pts_time:1.53032 dts:137729 dts_time:1.53032 duration:2351 duration_time:0.0261222 stream_index:0
pts:140080 pts_time:1.55644 dts:140080 dts_time:1.55644 duration:2351 duration_time:0.0261222 stream_index:0
pts:142431 pts_time:1.58257 dts:142431 dts_time:1.58257 duration:2351 duration_time:0.0261222 stream_index:0
pts:144782 pts_time:1.60869 dts:144782 dts_time:1.60869 duration:2351 duration_time:0.0261222 stream_index:0
pts:147133 pts_time:1.63481 dts:147133 dts_time:1.63481 duration:2351 duration_time:0.0261222 stream_index:0
pts:149484 pts_time:1.66093 dts:149484 dts_time:1.66093 duration:2351 duration_time:0.0261222 stream_index:0
pts:151835 pts_time:1.68706 dts:151835 dts_time:1.68706 duration:2351 duration_time:0.0261222 stream_index:0
pts:154186 pts_time:1.71318 dts:154186 dts_time:1.71318 duration:2351 duration_time:0.0261222 stream_index:0
pts:156537 pts_time:1.7393 dts:156537 dts_time:1.7393 duration:2351 duration_time:0.0261222 stream_index:0
pts:158888 pts_time:1.76542 dts:158888 dts_time:1.76542 duration:2351 duration_time:0.0261222 stream_index:0
pts:161239 pts_time:1.79154 dts:161239 dts_time:1.79154 duration:2351 duration_time:0.0261222 stream_index:0
pts:163590 pts_time:1.81767 dts:163590 dts_time:1.81767 duration:2351 duration_time:0.0261222 stream_index:0
pts:165941 pts_time:1.84379 dts:165941 dts_time:1.84379 duration:2351 duration_time:0.0261222 stream_index:0
pts:168292 pts_time:1.86991 dts:168292 dts_time:1.86991 duration:2351 duration_time:0.0261222 stream_index:0
pts:170643 pts_time:1.89603 dts:170643 dts_time:1.89603 duration:2351 duration_time:0.0261222 stream_index:0
pts:172994 pts_time:1.92216 dts:172994 dts_time:1.92216 duration:2351 duration_time:0.0261222 stream_index:0
pts:175345 pts_time:1.94828 dts:175345 dts_time:1.94828 duration:2351 duration_time:0.0261222 stream_index:0
pts:177696 pts_time:1.9744 dts:177696 dts_time:1.9744 duration:2351 duration_time:0.0261222 stream_index:0
pts:180047 pts_time:2.00052 dts:180047 dts_time:2.00052 duration:2351 duration_time:0.0261222 stream_index:0
pts:182398 pts_time:2.02664 dts:182398 dts_time:2.02664 duration:2351 duration_time:0.0261222 stream_index:0
pts:184749 pts_time:2.05277 dts:184749 dts_time:2.05277 duration:2351 duration_time:0.0261222 stream_index:0
pts:187100 pts_time:2.07889 dts:187100 dts_time:2.07889 duration:2351 duration_time:0.0261222 stream_index:0
pts:189451 pts_time:2.10501 dts:189451 dts_time:2.10501 duration:2351 duration_time:0.0261222 stream_index:0
pts:191802 pts_time:2.13113 dts:191802 dts_time:2.13113 duration:2351 duration_time:0.0261222 stream_index:0
pts:194153 pts_time:2.15726 dts:194153 dts_time:2.15726 duration:2351 duration_time:0.0261222 stream_index:0
pts:196504 pts_time:2.18338 dts:196504 dts_time:2.18338 duration:2351 duration_time:0.0261222 stream_index:0
pts:198855 pts_time:2.2095 dts:198855 dts_time:2.2095 duration:2351 duration_time:0.0261222 stream_index:0
pts:201206 pts_time:2.23562 dts:201206 dts_time:2.23562 duration:2351 duration_time:0.0261222 stream_index:0
pts:203557 pts_time:2.26174 dts:203557 dts_time:2.26174 duration:2351 duration_time:0.0261222 stream_index:0
pts:205908 pts_time:2.28787 dts:205908 dts_time:2.28787 duration:2351 duration_time:0.0261222 stream_index:0
pts:208259 pts_time:2.31399 dts:208259 dts_time:2.31399 duration:2351 duration_time:0.0261222 stream_index:0
pts:210610 pts_time:2.34011 dts:210610 dts_time:2.34011 duration:2351 duration_time:0.0261222 stream_index:0
pts:212961 pts_time:2.36623 dts:212961 dts_time:2.36623 duration:2351 duration_time:0.0261222 stream_index:0
pts:215312 pts_time:2.39236 dts:215312 dts_time:2.39236 duration:2351 duration_time:0.0261222 stream_index:0
pts:217663 pts_time:2.41848 dts:217663 dts_time:2.41848 duration:2351 duration_time:0.0261222 stream_index:0
pts:220014 pts_time:2.4446 dts:220014 dts_time:2.4446 duration:2351 duration_time:0.0261222 stream_index:0
pts:222365 pts_time:2.47072 dts:222365 dts_time:2.47072 duration:2351 duration_time:0.0261222 stream_index:0
pts:224716 pts_time:2.49684 dts:224716 dts_time:2.49684 duration:2351 duration_time:0.0261222 stream_index:0
pts:227067 pts_time:2.52297 dts:227067 dts_time:2.52297 duration:2351 duration_time:0.0261222 stream_index:0
pts:229418 pts_time:2.54909 dts:229418 dts_time:2.54909 duration:2351 duration_time:0.0261222 stream_index:0
pts:231769 pts_time:2.57521 dts:231769 dts_time:2.57521 duration:2351 duration_time:0.0261222 stream_index:0
pts:234120 pts_time:2.60133 dts:234120 dts_time:2.60133 duration:2351 duration_time:0.0261222 stream_index:0
pts:236471 pts_time:2.62746 dts:236471 dts_time:2.62746 duration:2351 duration_time:0.0261222 stream_index:0
pts:238822 pts_time:2.65358 dts:238822 dts_time:2.65358 duration:2351 duration_time:0.0261222 stream_index:0
pts:241173 pts_time:2.6797 dts:241173 dts_time:2.6797 duration:2351 duration_time:0.0261222 stream_index:0
pts:243524 pts_time:2.70582 dts:243524 dts_time:2.70582 duration:2351 duration_time:0.0261222 stream_index:0
pts:245876 pts_time:2.73196 dts:245876 dts_time:2.73196 duration:2351 duration_time:0.0261222 stream_index:0
pts:248227 pts_time:2.75808 dts:248227 dts_time:2.75808 duration:2351 duration_time:0.0261222 stream_index:0
pts:250578 pts_time:2.7842 dts:250578 dts_time:2.7842 duration:2351 duration_time:0.0261222 stream_index:0
pts:252929 pts_time:2.81032 dts:252929 dts_time:2.81032 duration:2351 duration_time:0.0261222 stream_index:0
pts:255280 pts_time:2.83644 dts:255280 dts_time:2.83644 duration:2351 duration_time:0.0261222 stream_index:0
pts:257631 pts_time:2.86257 dts:257631 dts_time:2.86257 duration:2351 duration_time:0.0261222 stream_index:0
pts:259982 pts_time:2.88869 dts:259982 dts_time:2.88869 duration:2351 duration_time:0.0261222 stream_index:0
pts:262333 pts_time:2.91481 dts:262333 dts_time:2.91481 duration:2351 duration_time:0.0261222 stream_index:0
pts:264684 pts_time:2.94093 dts:264684 dts_time:2.94093 duration:2351 duration_time:0.0261222 stream_index:0
pts:267035 pts_time:2.96706 dts:267035 dts_time:2.96706 duration:2351 duration_time:0.0261222 stream_index:0
pts:269386 pts_time:2.99318 dts:269386 dts_time:2.99318 duration:2351 duration_time:0.0261222 stream_index:0
pts:271737 pts_time:3.0193 dts:271737 dts_time:3.0193 duration:2351 duration_time:0.0261222 stream_index:0
pts:274088 pts_time:3.04542 dts:274088 dts_time:3.04542 duration:2351 duration_time:0.0261222 stream_index:0
pts:276439 pts_time:3.07154 dts:276439 dts_time:3.07154 duration:2351 duration_time:0.0261222 stream_index:0
pts:278790 pts_time:3.09767 dts:278790 dts_time:3.09767 duration:2351 duration_time:0.0261222 stream_index:0
pts:281141 pts_time:3.12379 dts:281141 dts_time:3.12379 duration:2351 duration_time:0.0261222 stream_index:0
pts:283492 pts_time:3.14991 dts:283492 dts_time:3.14991 duration:2351 duration_time:0.0261222 stream_index:0
pts:285843 pts_time:3.17603 dts:285843 dts_time:3.17603 duration:2351 duration_time:0.0261222 stream_index:0
pts:288194 pts_time:3.20216 dts:288194 dts_time:3.20216 duration:2351 duration_time:0.0261222 stream_index:0
pts:290545 pts_time:3.22828 dts:290545 dts_time:3.22828 duration:2351 duration_time:0.0261222 stream_index:0
pts:292896 pts_time:3.2544 dts:292896 dts_time:3.2544 duration:2351 duration_time:0.0261222 stream_index:0
pts:295247 pts_time:3.28052 dts:295247 dts_time:3.28052 duration:2351 duration_time:0.0261222 stream_index:0
pts:297598 pts_time:3.30664 dts:297598 dts_time:3.30664 duration:2351 duration_time:0.0261222 stream_index:0
pts:299949 pts_time:3.33277 dts:299949 dts_time:3.33277 duration:2351 duration_time:0.0261222 stream_index:0
pts:302300 pts_time:3.35889 dts:302300 dts_time:3.35889 duration:2351 duration_time:0.0261222 stream_index:0
pts:304651 pts_time:3.38501 dts:304651 dts_time:3.38501 duration:2351 duration_time:0.0261222 stream_index:0
pts:307002 pts_time:3.41113 dts:307002 dts_time:3.41113 duration:2351 duration_time:0.0261222 stream_index:0
pts:309353 pts_time:3.43726 dts:309353 dts_time:3.43726 duration:2351 duration_time:0.0261222 stream_index:0
pts:311704 pts_time:3.46338 dts:311704 dts_time:3.46338 duration:2351 duration_time:0.0261222 stream_index:0
pts:314055 pts_time:3.4895 dts:314055 dts_time:3.4895 duration:2351 duration_time:0.0261222 stream_index:0
pts:316406 pts_time:3.51562 dts:316406 dts_time:3.51562 duration:2351 duration_time:0.0261222 stream_index:0
pts:318757 pts_time:3.54174 dts:318757 dts_time:3.54174 duration:2351 duration_time:0.0261222 stream_index:0
pts:321108 pts_time:3.56787 dts:321108 dts_time:3.56787 duration:2351 duration_time:0.0261222 stream_index:0
pts:323459 pts_time:3.59399 dts:323459 dts_time:3.59399 duration:2351 duration_time:0.0261222 stream_index:0
pts:325810 pts_time:3.62011 dts:325810 dts_time:3.62011 duration:2351 duration_time:0.0261222 stream_index:0
pts:328161 pts_time:3.64623 dts:328161 dts_time:3.64623 duration:2351 duration_time:0.0261222 stream_index:0
pts:330512 pts_time:3.67236 dts:330512 dts_time:3.67236 duration:2351 duration_time:0.0261222 stream_index:0
pts:332863 pts_time:3.69848 dts:332863 dts_time:3.69848 duration:2351 duration_time:0.0261222 stream_index:0
pts:335214 pts_time:3.7246 dts:335214 dts_time:3.7246 duration:2351 duration_time:0.0261222 stream_index:0
pts:337565 pts_time:3.75072 dts:337565 dts_time:3.75072 duration:2351 duration_time:0.0261222 stream_index:0
pts:339916 pts_time:3.77684 dts:339916 dts_time:3.77684 duration:2351 duration_time:0.0261222 stream_index:0
pts:342267 pts_time:3.80297 dts:342267 dts_time:3.80297 duration:2351 duration_time:0.0261222 stream_index:0
pts:344618 pts_time:3.82909 dts:344618 dts_time:3.82909 duration:2351 duration_time:0.0261222 stream_index:0
pts:346969 pts_time:3.85521 dts:346969 dts_time:3.85521 duration:2351 duration_time:0.0261222 stream_index:0
pts:349320 pts_time:3.88133 dts:349320 dts_time:3.88133 duration:2351 duration_time:0.0261222 stream_index:0
pts:351671 pts_time:3.90746 dts:351671 dts_time:3.90746 duration:2351 duration_time:0.0261222 stream_index:0
pts:354022 pts_time:3.93358 dts:354022 dts_time:3.93358 duration:2351 duration_time:0.0261222 stream_index:0
pts:356373 pts_time:3.9597 dts:356373 dts_time:3.9597 duration:2351 duration_time:0.0261222 stream_index:0
pts:358724 pts_time:3.98582 dts:358724 dts_time:3.98582 duration:2351 duration_time:0.0261222 stream_index:0
pts:361076 pts_time:4.01196 dts:361076 dts_time:4.01196 duration:2351 duration_time:0.0261222 stream_index:0
pts:363427 pts_time:4.03808 dts:363427 dts_time:4.03808 duration:2351 duration_time:0.0261222 stream_index:0
pts:365778 pts_time:4.0642 dts:365778 dts_time:4.0642 duration:2351 duration_time:0.0261222 stream_index:0
pts:368129 pts_time:4.09032 dts:368129 dts_time:4.09032 duration:2351 duration_time:0.0261222 stream_index:0
pts:370480 pts_time:4.11644 dts:370480 dts_time:4.11644 duration:2351 duration_time:0.0261222 stream_index:0
pts:372831 pts_time:4.14257 dts:372831 dts_time:4.14257 duration:2351 duration_time:0.0261222 stream_index:0
pts:375182 pts_time:4.16869 dts:375182 dts_time:4.16869 duration:2351 duration_time:0.0261222 stream_index:0
pts:377533 pts_time:4.19481 dts:377533 dts_time:4.19481 duration:2351 duration_time:0.0261222 stream_index:0
pts:379884 pts_time:4.22093 dts:379884 dts_time:4.22093 duration:2351 duration_time:0.0261222 stream_index:0
pts:382235 pts_time:4.24706 dts:382235 dts_time:4.24706 duration:2351 duration_time:0.0261222 stream_index:0
pts:384586 pts_time:4.27318 dts:384586 dts_time:4.27318 duration:2351 duration_time:0.0261222 stream_index:0
pts:386937 pts_time:4.2993 dts:386937 dts_time:4.2993 duration:2351 duration_time:0.0261222 stream_index:0
pts:389288 pts_time:4.32542 dts:389288 dts_time:4.32542 duration:2351 duration_time:0.0261222 stream_index:0
pts:391639 pts_time:4.35154 dts:391639 dts_time:4.35154 duration:2351 duration_time:0.0261222 stream_index:0
pts:393990 pts_time:4.37767 dts:393990 dts_time:4.37767 duration:2351 duration_time:0.0261222 stream_index:0
pts:396341 pts_time:4.40379 dts:396341 dts_time:4.40379 duration:2351 duration_time:0.0261222 stream_index:0
pts:398692 pts_time:4.42991 dts:398692 dts_time:4.42991 duration:2351 duration_time:0.0261222 stream_index:0
pts:401043 pts_time:4.45603 dts:401043 dts_time:4.45603 duration:2351 duration_time:0.0261222 stream_index:0
pts:403394 pts_time:4.48216 dts:403394 dts_time:4.48216 duration:2351 duration_time:0.0261222 stream_index:0
pts:405745 pts_time:4.50828 dts:405745 dts_time:4.50828 duration:2351 duration_time:0.0261222 stream_index:0
pts:408096 pts_time:4.5344 dts:408096 dts_time:4.5344 duration:2351 duration_time:0.0261222 stream_index:0
pts:410447 pts_time:4.56052 dts:410447 dts_time:4.56052 duration:2351 duration_time:0.0261222 stream_index:0
pts:412798 pts_time:4.58664 dts:412798 dts_time:4.58664 duration:2351 duration_time:0.0261222 stream_index:0
pts:415149 pts_time:4.61277 dts:415149 dts_time:4.61277 duration:2351 duration_time:0.0261222 stream_index:0
pts:417500 pts_time:4.63889 dts:417500 dts_time:4.63889 duration:2351 duration_time:0.0261222 stream_index:0
pts:419851 pts_time:4.66501 dts:419851 dts_time:4.66501 duration:2351 duration_time:0.0261222 stream_index:0
pts:422202 pts_time:4.69113 dts:422202 dts_time:4.69113 duration:2351 duration_time:0.0261222 stream_index:0
pts:424553 pts_time:4.71726 dts:424553 dts_time:4.71726 duration:2351 duration_time:0.0261222 stream_index:0
pts:426904 pts_time:4.74338 dts:426904 dts_time:4.74338 duration:2351 duration_time:0.0261222 stream_index:0
pts:429255 pts_time:4.7695 dts:429255 dts_time:4.7695 duration:2351 duration_time:0.0261222 stream_index:0
pts:431606 pts_time:4.79562 dts:431606 dts_time:4.79562 duration:2351 duration_time:0.0261222 stream_index:0
pts:433957 pts_time:4.82174 dts:433957 dts_time:4.82174 duration:2351 duration_time:0.0261222 stream_index:0
pts:436308 pts_time:4.84787 dts:436308 dts_time:4.84787 duration:2351 duration_time:0.0261222 stream_index:0
pts:438659 pts_time:4.87399 dts:438659 dts_time:4.87399 duration:2351 duration_time:0.0261222 stream_index:0
pts:441010 pts_time:4.90011 dts:441010 dts_time:4.90011 duration:2351 duration_time:0.0261222 stream_index:0
pts:443361 pts_time:4.92623 dts:443361 dts_time:4.92623 duration:2351 duration_time:0.0261222 stream_index:0
pts:445712 pts_time:4.95236 dts:445712 dts_time:4.95236 duration:2351 duration_time:0.0261222 stream_index:0
pts:448063 pts_time:4.97848 dts:448063 dts_time:4.97848 duration:2351 duration_time:0.0261222 stream_index:0
pts:450414 pts_time:5.0046 dts:450414 dts_time:5.0046 duration:2351 duration_time:0.0261222 stream_index:0
pts:452765 pts_time:5.03072 dts:452765 dts_time:5.03072 duration:2351 duration_time:0.0261222 stream_index:0
pts:455116 pts_time:5.05684 dts:455116 dts_time:5.05684 duration:2351 duration_time:0.0261222 stream_index:0
pts:457467 pts_time:5.08297 dts:457467 dts_time:5.08297 duration:2351 duration_time:0.0261222 stream_index:0
pts:459818 pts_time:5.10909 dts:459818 dts_time:5.10909 duration:2351 duration_time:0.0261222 stream_index:0
pts:462169 pts_time:5.13521 dts:462169 dts_time:5.13521 duration:2351 duration_time:0.0261222 stream_index:0
pts:464520 pts_time:5.16133 dts:464520 dts_time:5.16133 duration:2351 duration_time:0.0261222 stream_index:0
pts:466871 pts_time:5.18746 dts:466871 dts_time:5.18746 duration:2351 duration_time:0.0261222 stream_index:0
pts:469222 pts_time:5.21358 dts:469222 dts_time:5.21358 duration:2351 duration_time:0.0261222 stream_index:0
pts:471573 pts_time:5.2397 dts:471573 dts_time:5.2397 duration:2351 duration_time:0.0261222 stream_index:0
pts:473924 pts_time:5.26582 dts:473924 dts_time:5.26582 duration:2351 duration_time:0.0261222 stream_index:0
pts:476276 pts_time:5.29196 dts:476276 dts_time:5.29196 duration:2351 duration_time:0.0261222 stream_index:0
pts:478627 pts_time:5.31808 dts:478627 dts_time:5.31808 duration:2351 duration_time:0.0261222 stream_index:0
pts:480978 pts_time:5.3442 dts:480978 dts_time:5.3442 duration:2351 duration_time:0.0261222 stream_index:0
pts:483329 pts_time:5.37032 dts:483329 dts_time:5.37032 duration:2351 duration_time:0.0261222 stream_index:0
pts:485680 pts_time:5.39644 dts:485680 dts_time:5.39644 duration:2351 duration_time:0.0261222 stream_index:0
pts:488031 pts_time:5.42257 dts:488031 dts_time:5.42257 duration:2351 duration_time:0.0261222 stream_index:0
pts:490382 pts_time:5.44869 dts:490382 dts_time:5.44869 duration:2351 duration_time:0.0261222 stream_index:0
pts:492733 pts_time:5.47481 dts:492733 dts_time:5.47481 duration:2351 duration_time:0.0261222 stream_index:0
pts:495084 pts_time:5.50093 dts:495084 dts_time:5.50093 duration:2351 duration_time:0.0261222 stream_index:0
pts:497435 pts_time:5.52706 dts:497435 dts_time:5.52706 duration:2351 duration_time:0.0261222 stream_index:0
pts:499786 pts_time:5.55318 dts:499786 dts_time:5.55318 duration:2351 duration_time:0.0261222 stream_index:0
pts:502137 pts_time:5.5793 dts:502137 dts_time:5.5793 duration:2351 duration_time:0.0261222 stream_index:0
pts:504488 pts_time:5.60542 dts:504488 dts_time:5.60542 duration:2351 duration_time:0.0261222 stream_index:0
pts:506839 pts_time:5.63154 dts:506839 dts_time:5.63154 duration:2351 duration_time:0.0261222 stream_index:0
pts:509190 pts_time:5.65767 dts:509190 dts_time:5.65767 duration:2351 duration_time:0.0261222 stream_index:0
pts:511541 pts_time:5.68379 dts:511541 dts_time:5.68379 duration:2351 duration_time:0.0261222 stream_index:0
pts:513892 pts_time:5.70991 dts:513892 dts_time:5.70991 duration:2351 duration_time:0.0261222 stream_index:0
pts:516243 pts_time:5.73603 dts:516243 dts_time:5.73603 duration:2351 duration_time:0.0261222 stream_index:0
pts:518594 pts_time:5.76216 dts:518594 dts_time:5.76216 duration:2351 duration_time:0.0261222 stream_index:0
pts:520945 pts_time:5.78828 dts:520945 dts_time:5.78828 duration:2351 duration_time:0.0261222 stream_index:0
pts:523296 pts_time:5.8144 dts:523296 dts_time:5.8144 duration:2351 duration_time:0.0261222 stream_index:0
pts:525647 pts_time:5.84052 dts:525647 dts_time:5.84052 duration:2351 duration_time:0.0261222 stream_index:0
pts:527998 pts_time:5.86664 dts:527998 dts_time:5.86664 duration:2351 duration_time:0.0261222 stream_index:0
pts:530349 pts_time:5.89277 dts:530349 dts_time:5.89277 duration:2351 duration_time:0.0261222 stream_index:0
pts:532700 pts_time:5.91889 dts:532700 dts_time:5.91889 duration:2351 duration_time:0.0261222 stream_index:0
pts:535051 pts_time:5.94501 dts:535051 dts_time:5.94501 duration:2351 duration_time:0.0261222 stream_index:0
pts:537402 pts_time:5.97113 dts:537402 dts_time:5.97113 duration:2351 duration_time:0.0261222 stream_index:0
pts:539753 pts_time:5.99726 dts:539753 dts_time:5.99726 duration:2351 duration_time:0.0261222 stream_index:0
pts:542104 pts_time:6.02338 dts:542104 dts_time:6.02338 duration:2351 duration_time:0.0261222 stream_index:0
pts:544455 pts_time:6.0495 dts:544455 dts_time:6.0495 duration:2351 duration_time:0.0261222 stream_index:0
pts:546806 pts_time:6.07562 dts:546806 dts_time:6.07562 duration:2351 duration_time:0.0261222 stream_index:0
pts:549157 pts_time:6.10174 dts:549157 dts_time:6.10174 duration:2351 duration_time:0.0261222 stream_index:0
pts:551508 pts_time:6.12787 dts:551508 dts_time:6.12787 duration:2351 duration_time:0.0261222 stream_index:0
pts:553859 pts_time:6.15399 dts:553859 dts_time:6.15399 duration:2351 duration_time:0.0261222 stream_index:0
pts:556210 pts_time:6.18011 dts:556210 dts_time:6.18011 duration:2351 duration_time:0.0261222 stream_index:0
pts:558561 pts_time:6.20623 dts:558561 dts_time:6.20623 duration:2351 duration_time:0.0261222 stream_index:0
pts:560912 pts_time:6.23236 dts:560912 dts_time:6.23236 duration:2351 duration_time:0.0261222 stream_index:0
pts:563263 pts_time:6.25848 dts:563263 dts_time:6.25848 duration:2351 duration_time:0.0261222 stream_index:0
pts:565614 pts_time:6.2846 dts:565614 dts_time:6.2846 duration:2351 duration_time:0.0261222 stream_index:0
pts:567965 pts_time:6.31072 dts:567965 dts_time:6.31072 duration:2351 duration_time:0.0261222 stream_index:0
pts:570316 pts_time:6.33684 dts:570316 dts_time:6.33684 duration:2351 duration_time:0.0261222 stream_index:0
pts:572667 pts_time:6.36297 dts:572667 dts_time:6.36297 duration:2351 duration_time:0.0261222 stream_index:0
pts:575018 pts_time:6.38909 dts:575018 dts_time:6.38909 duration:2351 duration_time:0.0261222 stream_index:0
pts:577369 pts_time:6.41521 dts:577369 dts_time:6.41521 duration:2351 duration_time:0.0261222 stream_index:0
pts:579720 pts_time:6.44133 dts:579720 dts_time:6.44133 duration:2351 duration_time:0.0261222 stream_index:0
pts:582071 pts_time:6.46746 dts:582071 dts_time:6.46746 duration:2351 duration_time:0.0261222 stream_index:0
pts:584422 pts_time:6.49358 dts:584422 dts_time:6.49358 duration:2351 duration_time:0.0261222 stream_index:0
pts:586773 pts_time:6.5197 dts:586773 dts_time:6.5197 duration:2351 duration_time:0.0261222 stream_index:0
pts:589124 pts_time:6.54582 dts:589124 dts_time:6.54582 duration:2351 duration_time:0.0261222 stream_index:0
pts:591476 pts_time:6.57196 dts:591476 dts_time:6.57196 duration:2351 duration_time:0.0261222 stream_index:0
pts:593827 pts_time:6.59808 dts:593827 dts_time:6.59808 duration:2351 duration_time:0.0261222 stream_index:0
pts:596178 pts_time:6.6242 dts:596178 dts_time:6.6242 duration:2351 duration_time:0.0261222 stream_index:0
pts:598529 pts_time:6.65032 dts:598529 dts_time:6.65032 duration:2351 duration_time:0.0261222 stream_index:0
pts:600880 pts_time:6.67644 dts:600880 dts_time:6.67644 duration:2351 duration_time:0.0261222 stream_index:0
pts:603231 pts_time:6.70257 dts:603231 dts_time:6.70257 duration:2351 duration_time:0.0261222 stream_index:0
pts:605582 pts_time:6.72869 dts:605582 dts_time:6.72869 duration:2351 duration_time:0.0261222 stream_index:0
pts:607933 pts_time:6.75481 dts:607933 dts_time:6.75481 duration:2351 duration_time:0.0261222 stream_index:0
pts:610284 pts_time:6.78093 dts:610284 dts_time:6.78093 duration:2351 duration_time:0.0261222 stream_index:0
pts:612635 pts_time:6.80706 dts:612635 dts_time:6.80706 duration:2351 duration_time:0.0261222 stream_index:0
pts:614986 pts_time:6.83318 dts:614986 dts_time:6.83318 duration:2351 duration_time:0.0261222 stream_index:0
pts:617337 pts_time:6.8593 dts:617337 dts_time:6.8593 duration:2351 duration_time:0.0261222 stream_index:0
pts:619688 pts_time:6.88542 dts:619688 dts_time:6.88542 duration:2351 duration_time:0.0261222 stream_index:0
pts:622039 pts_time:6.91154 dts:622039 dts_time:6.91154 duration:2351 duration_time:0.0261222 stream_index:0
pts:624390 pts_time:6.93767 dts:624390 dts_time:6.93767 duration:2351 duration_time:0.0261222 stream_index:0
pts:626741 pts_time:6.96379 dts:626741 dts_time:6.96379 duration:2351 duration_time:0.0261222 stream_index:0
pts:629092 pts_time:6.98991 dts:629092 dts_time:6.98991 duration:2351 duration_time:0.0261222 stream_index:0
pts:631443 pts_time:7.01603 dts:631443 dts_time:7.01603 duration:2351 duration_time:0.0261222 stream_index:0
pts:633794 pts_time:7.04216 dts:633794 dts_time:7.04216 duration:2351 duration_time:0.0261222 stream_index:0
pts:636145 pts_time:7.06828 dts:636145 dts_time:7.06828 duration:2351 duration_time:0.0261222 stream_index:0
pts:638496 pts_time:7.0944 dts:638496 dts_time:7.0944 duration:2351 duration_time:0.0261222 stream_index:0
pts:640847 pts_time:7.12052 dts:640847 dts_time:7.12052 duration:2351 duration_time:0.0261222 stream_index:0
pts:643198 pts_time:7.14664 dts:643198 dts_time:7.14664 duration:2351 duration_time:0.0261222 stream_index:0
pts:645549 pts_time:7.17277 dts:645549 dts_time:7.17277 duration:2351 duration_time:0.0261222 stream_index:0
pts:647900 pts_time:7.19889 dts:647900 dts_time:7.19889 duration:2351 duration_time:0.0261222 stream_index:0
pts:650251 pts_time:7.22501 dts:650251 dts_time:7.22501 duration:2351 duration_time:0.0261222 stream_index:0
pts:652602 pts_time:7.25113 dts:652602 dts_time:7.25113 duration:2351 duration_time:0.0261222 stream_index:0
pts:654953 pts_time:7.27726 dts:654953 dts_time:7.27726 duration:2351 duration_time:0.0261222 stream_index:0
pts:657304 pts_time:7.30338 dts:657304 dts_time:7.30338 duration:2351 duration_time:0.0261222 stream_index:0
pts:659655 pts_time:7.3295 dts:659655 dts_time:7.3295 duration:2351 duration_time:0.0261222 stream_index:0
pts:662006 pts_time:7.35562 dts:662006 dts_time:7.35562 duration:2351 duration_time:0.0261222 stream_index:0
pts:664357 pts_time:7.38174 dts:664357 dts_time:7.38174 duration:2351 duration_time:0.0261222 stream_index:0
pts:666708 pts_time:7.40787 dts:666708 dts_time:7.40787 duration:2351 duration_time:0.0261222 stream_index:0
pts:669059 pts_time:7.43399 dts:669059 dts_time:7.43399 duration:2351 duration_time:0.0261222 stream_index:0
pts:671410 pts_time:7.46011 dts:671410 dts_time:7.46011 duration:2351 duration_time:0.0261222 stream_index:0
pts:673761 pts_time:7.48623 dts:673761 dts_time:7.48623 duration:2351 duration_time:0.0261222 stream_index:0
pts:676112 pts_time:7.51236 dts:676112 dts_time:7.51236 duration:2351 duration_time:0.0261222 stream_index:0
pts:678463 pts_time:7.53848 dts:678463 dts_time:7.53848 duration:2351 duration_time:0.0261222 stream_index:0
pts:680814 pts_time:7.5646 dts:680814 dts_time:7.5646 duration:2351 duration_time:0.0261222 stream_index:0
pts:683165 pts_time:7.59072 dts:683165 dts_time:7.59072 duration:2351 duration_time:0.0261222 stream_index:0
pts:685516 pts_time:7.61684 dts:685516 dts_time:7.61684 duration:2351 duration_time:0.0261222 stream_index:0
pts:687867 pts_time:7.64297 dts:687867 dts_time:7.64297 duration:2351 duration_time:0.0261222 stream_index:0
pts:690218 pts_time:7.66909 dts:690218 dts_time:7.66909 duration:2351 duration_time:0.0261222 stream_index:0
pts:692569 pts_time:7.69521 dts:692569 dts_time:7.69521 duration:2351 duration_time:0.0261222 stream_index:0
pts:694920 pts_time:7.72133 dts:694920 dts_time:7.72133 duration:2351 duration_time:0.0261222 stream_index:0
pts:697271 pts_time:7.74746 dts:697271 dts_time:7.74746 duration:2351 duration_time:0.0261222 stream_index:0
pts:699622 pts_time:7.77358 dts:699622 dts_time:7.77358 duration:2351 duration_time:0.0261222 stream_index:0
pts:701973 pts_time:7.7997 dts:701973 dts_time:7.7997 duration:2351 duration_time:0.0261222 stream_index:0
pts:704324 pts_time:7.82582 dts:704324 dts_time:7.82582 duration:2351 duration_time:0.0261222 stream_index:0
pts:706676 pts_time:7.85196 dts:706676 dts_time:7.85196 duration:2351 duration_time:0.0261222 stream_index:0
pts:709027 pts_time:7.87808 dts:709027 dts_time:7.87808 duration:2351 duration_time:0.0261222 stream_index:0
pts:711378 pts_time:7.9042 dts:711378 dts_time:7.9042 duration:2351 duration_time:0.0261222 stream_index:0
pts:713729 pts_time:7.93032 dts:713729 dts_time:7.93032 duration:2351 duration_time:0.0261222 stream_index:0
pts:716080 pts_time:7.95644 dts:716080 dts_time:7.95644 duration:2351 duration_time:0.0261222 stream_index:0
pts:718431 pts_time:7.98257 dts:718431 dts_time:7.98257 duration:2351 duration_time:0.0261222 stream_index:0
pts:720782 pts_time:8.00869 dts:720782 dts_time:8.00869 duration:2351 duration_time:0.0261222 stream_index:0
pts:723133 pts_time:8.03481 dts:723133 dts_time:8.03481 duration:2351 duration_time:0.0261222 stream_index:0
pts:725484 pts_time:8.06093 dts:725484 dts_time:8.06093 duration:2351 duration_time:0.0261222 stream_index:0
pts:727835 pts_time:8.08706 dts:727835 dts_time:8.08706 duration:2351 duration_time:0.0261222 stream_index:0
pts:730186 pts_time:8.11318 dts:730186 dts_time:8.11318 duration:2351 duration_time:0.0261222 stream_index:0
pts:732537 pts_time:8.1393 dts:732537 dts_time:8.1393 duration:2351 duration_time:0.0261222 stream_index:0
pts:734888 pts_time:8.16542 dts:734888 dts_time:8.16542 duration:2351 duration_time:0.0261222 stream_index:0
pts:737239 pts_time:8.19154 dts:737239 dts_time:8.19154 duration:2351 duration_time:0.0261222 stream_index:0
pts:739590 pts_time:8.21767 dts:739590 dts_time:8.21767 duration:2351 duration_time:0.0261222 stream_index:0
pts:741941 pts_time:8.24379 dts:741941 dts_time:8.24379 duration:2351 duration_time:0.0261222 stream_index:0
pts:744292 pts_time:8.26991 dts:744292 dts_time:8.26991 duration:2351 duration_time:0.0261222 stream_index:0
pts:746643 pts_time:8.29603 dts:746643 dts_time:8.29603 duration:2351 duration_time:0.0261222 stream_index:0
pts:748994 pts_time:8.32216 dts:748994 dts_time:8.32216 duration:2351 duration_time:0.0261222 stream_index:0
pts:751345 pts_time:8.34828 dts:751345 dts_time:8.34828 duration:2351 duration_time:0.0261222 stream_index:0
pts:753696 pts_time:8.3744 dts:753696 dts_time:8.3744 duration:2351 duration_time:0.0261222 stream_index:0
pts:756047 pts_time:8.40052 dts:756047 dts_time:8.40052 duration:2351 duration_time:0.0261222 stream_index:0
pts:758398 pts_time:8.42664 dts:758398 dts_time:8.42664 duration:2351 duration_time:0.0261222 stream_index:0
pts:760749 pts_time:8.45277 dts:760749 dts_time:8.45277 duration:2351 duration_time:0.0261222 stream_index:0
pts:763100 pts_time:8.47889 dts:763100 dts_time:8.47889 duration:2351 duration_time:0.0261222 stream_index:0
pts:765451 pts_time:8.50501 dts:765451 dts_time:8.50501 duration:2351 duration_time:0.0261222 stream_index:0
pts:767802 pts_time:8.53113 dts:767802 dts_time:8.53113 duration:2351 duration_time:0.0261222 stream_index:0
pts:770153 pts_time:8.55726 dts:770153 dts_time:8.55726 duration:2351 duration_time:0.0261222 stream_index:0
pts:772504 pts_time:8.58338 dts:772504 dts_time:8.58338 duration:2351 duration_time:0.0261222 stream_index:0
pts:774855 pts_time:8.6095 dts:774855 dts_time:8.6095 duration:2351 duration_time:0.0261222 stream_index:0
pts:777206 pts_time:8.63562 dts:777206 dts_time:8.63562 duration:2351 duration_time:0.0261222 stream_index:0
pts:779557 pts_time:8.66174 dts:779557 dts_time:8.66174 duration:2351 duration_time:0.0261222 stream_index:0
pts:781908 pts_time:8.68787 dts:781908 dts_time:8.68787 duration:2351 duration_time:0.0261222 stream_index:0
pts:784259 pts_time:8.71399 dts:784259 dts_time:8.71399 duration:2351 duration_time:0.0261222 stream_index:0
pts:786610 pts_time:8.74011 dts:786610 dts_time:8.74011 duration:2351 duration_time:0.0261222 stream_index:0
pts:788961 pts_time:8.76623 dts:788961 dts_time:8.76623 duration:2351 duration_time:0.0261222 stream_index:0
pts:791312 pts_time:8.79236 dts:791312 dts_time:8.79236 duration:2351 duration_time:0.0261222 stream_index:0
pts:793663 pts_time:8.81848 dts:793663 dts_time:8.81848 duration:2351 duration_time:0.0261222 stream_index:0
pts:796014 pts_time:8.8446 dts:796014 dts_time:8.8446 duration:2351 duration_time:0.0261222 stream_index:0
pts:798365 pts_time:8.87072 dts:798365 dts_time:8.87072 duration:2351 duration_time:0.0261222 stream_index:0
pts:800716 pts_time:8.89684 dts:800716 dts_time:8.89684 duration:2351 duration_time:0.0261222 stream_index:0
pts:803067 pts_time:8.92297 dts:803067 dts_time:8.92297 duration:2351 duration_time:0.0261222 stream_index:0
pts:805418 pts_time:8.94909 dts:805418 dts_time:8.94909 duration:2351 duration_time:0.0261222 stream_index:0
pts:807769 pts_time:8.97521 dts:807769 dts_time:8.97521 duration:2351 duration_time:0.0261222 stream_index:0
pts:810120 pts_time:9.00133 dts:810120 dts_time:9.00133 duration:2351 duration_time:0.0261222 stream_index:0
pts:812471 pts_time:9.02746 dts:812471 dts_time:9.02746 duration:2351 duration_time:0.0261222 stream_index:0
pts:814822 pts_time:9.05358 dts:814822 dts_time:9.05358 duration:2351 duration_time:0.0261222 stream_index:0
pts:817173 pts_time:9.0797 dts:817173 dts_time:9.0797 duration:2351 duration_time:0.0261222 stream_index:0
pts:819524 pts_time:9.10582 dts:819524 dts_time:9.10582 duration:2351 duration_time:0.0261222 stream_index:0
pts:821876 pts_time:9.13196 dts:821876 dts_time:9.13196 duration:2351 duration_time:0.0261222 stream_index:0
pts:824227 pts_time:9.15808 dts:824227 dts_time:9.15808 duration:2351 duration_time:0.0261222 stream_index:0
pts:826578 pts_time:9.1842 dts:826578 dts_time:9.1842 duration:2351 duration_time:0.0261222 stream_index:0
pts:828929 pts_time:9.21032 dts:828929 dts_time:9.21032 duration:2351 duration_time:0.0261222 stream_index:0
pts:831280 pts_time:9.23644 dts:831280 dts_time:9.23644 duration:2351 duration_time:0.0261222 stream_index:0
pts:833631 pts_time:9.26257 dts:833631 dts_time:9.26257 duration:2351 duration_time:0.0261222 stream_index:0
pts:835982 pts_time:9.28869 dts:835982 dts_time:9.28869 duration:2351 duration_time:0.0261222 stream_index:0
pts:838333 pts_time:9.31481 dts:838333 dts_time:9.31481 duration:2351 duration_time:0.0261222 stream_index:0
pts:840684 pts_time:9.34093 dts:840684 dts_time:9.34093 duration:2351 duration_time:0.0261222 stream_index:0
pts:843035 pts_time:9.36706 dts:843035 dts_time:9.36706 duration:2351 duration_time:0.0261222 stream_index:0
pts:845386 pts_time:9.39318 dts:845386 dts_time:9.39318 duration:2351 duration_time:0.0261222 stream_index:0
pts:847737 pts_time:9.4193 dts:847737 dts_time:9.4193 duration:2351 duration_time:0.0261222 stream_index:0
pts:850088 pts_time:9.44542 dts:850088 dts_time:9.44542 duration:2351 duration_time:0.0261222 stream_index:0
pts:852439 pts_time:9.47154 dts:852439 dts_time:9.47154 duration:2351 duration_time:0.0261222 stream_index:0
pts:854790 pts_time:9.49767 dts:854790 dts_time:9.49767 duration:2351 duration_time:0.0261222 stream_index:0
pts:857141 pts_time:9.52379 dts:857141 dts_time:9.52379 duration:2351 duration_time:0.0261222 stream_index:0
pts:859492 pts_time:9.54991 dts:859492 dts_time:9.54991 duration:2351 duration_time:0.0261222 stream_index:0
pts:861843 pts_time:9.57603 dts:861843 dts_time:9.57603 duration:2351 duration_time:0.0261222 stream_index:0
pts:864194 pts_time:9.60216 dts:864194 dts_time:9.60216 duration:2351 duration_time:0.0261222 stream_index:0
pts:866545 pts_time:9.62828 dts:866545 dts_time:9.62828 duration:2351 duration_time:0.0261222 stream_index:0
pts:868896 pts_time:9.6544 dts:868896 dts_time:9.6544 duration:2351 duration_time:0.0261222 stream_index:0
pts:871247 pts_time:9.68052 dts:871247 dts_time:9.68052 duration:2351 duration_time:0.0261222 stream_index:0
pts:873598 pts_time:9.70664 dts:873598 dts_time:9.70664 duration:2351 duration_time:0.0261222 stream_index:0
pts:875949 pts_time:9.73277 dts:875949 dts_time:9.73277 duration:2351 duration_time:0.0261222 stream_index:0
pts:878300 pts_time:9.75889 dts:878300 dts_time:9.75889 duration:2351 duration_time:0.0261222 stream_index:0
pts:880651 pts_time:9.78501 dts:880651 dts_time:9.78501 duration:2351 duration_time:0.0261222 stream_index:0
pts:883002 pts_time:9.81113 dts:883002 dts_time:9.81113 duration:2351 duration_time:0.0261222 stream_index:0
pts:885353 pts_time:9.83726 dts:885353 dts_time:9.83726 duration:2351 duration_time:0.0261222 stream_index:0
pts:887704 pts_time:9.86338 dts:887704 dts_time:9.86338 duration:2351 duration_time:0.0261222 stream_index:0
pts:890055 pts_time:9.8895 dts:890055 dts_time:9.8895 duration:2351 duration_time:0.0261222 stream_index:0
pts:892406 pts_time:9.91562 dts:892406 dts_time:9.91562 duration:2351 duration_time:0.0261222 stream_index:0
pts:894757 pts_time:9.94174 dts:894757 dts_time:9.94174 duration:2351 duration_time:0.0261222 stream_index:0
pts:897108 pts_time:9.96787 dts:897108 dts_time:9.96787 duration:2351 duration_time:0.0261222 stream_index:0
